<?xml version="1.0" encoding="UTF-8"?>
<svg version="1.1" xmlns="http://www.w3.org/2000/svg" width="811" height="236">
<path d="M0 0 C267.63 0 535.26 0 811 0 C811 77.88 811 155.76 811 236 C543.37 236 275.74 236 0 236 C0 158.12 0 80.24 0 0 Z " fill="#8ED501" transform="translate(0,0)"/>
<path d="M0 0 C1.02996094 -0.00128906 2.05992187 -0.00257812 3.12109375 -0.00390625 C4.74724609 0.00189453 4.74724609 0.00189453 6.40625 0.0078125 C7.49035156 0.00394531 8.57445312 0.00007813 9.69140625 -0.00390625 C10.72136719 -0.00261719 11.75132812 -0.00132813 12.8125 0 C14.24045898 0.00169189 14.24045898 0.00169189 15.69726562 0.00341797 C17.90625 0.1328125 17.90625 0.1328125 18.90625 1.1328125 C19.00442208 2.73738441 19.03256921 4.34628524 19.03323364 5.95385742 C19.03746338 7.51878433 19.03746338 7.51878433 19.04177856 9.11532593 C19.03874222 10.84681381 19.03874222 10.84681381 19.03564453 12.61328125 C19.03827301 14.42525497 19.03827301 14.42525497 19.04095459 16.27383423 C19.04461278 19.59607204 19.04373968 22.91824793 19.0405755 26.24048233 C19.03805152 29.71004574 19.04038955 33.17960642 19.04196167 36.64916992 C19.04378325 42.47673012 19.04137735 48.30427766 19.03662109 54.13183594 C19.03117849 60.87842542 19.03294116 67.62498469 19.0384475 74.37157345 C19.04297895 80.15415424 19.04362902 85.93672591 19.04100883 91.7193079 C19.03944623 95.17732806 19.03925182 98.63533401 19.04254532 102.09335327 C19.04595839 105.94636214 19.04123377 109.79933689 19.03564453 113.65234375 C19.03766876 114.80666901 19.03969299 115.96099426 19.04177856 117.15029907 C19.03895874 118.19358368 19.03613892 119.23686829 19.03323364 120.31176758 C19.0326681 121.68006462 19.0326681 121.68006462 19.03209114 123.07600403 C18.90625 125.1328125 18.90625 125.1328125 17.90625 126.1328125 C16.21066274 126.23213403 14.51099253 126.26361257 12.8125 126.265625 C11.78253906 126.26691406 10.75257813 126.26820313 9.69140625 126.26953125 C8.06525391 126.26373047 8.06525391 126.26373047 6.40625 126.2578125 C5.32214844 126.26167969 4.23804688 126.26554687 3.12109375 126.26953125 C1.57615234 126.26759766 1.57615234 126.26759766 0 126.265625 C-0.95197266 126.26449707 -1.90394531 126.26336914 -2.88476562 126.26220703 C-5.09375 126.1328125 -5.09375 126.1328125 -6.09375 125.1328125 C-6.13467937 122.79983817 -6.13616723 120.46576025 -6.09375 118.1328125 C-7.40986677 119.08617271 -8.72153961 120.04567024 -10.03125 121.0078125 C-10.76214844 121.54148437 -11.49304688 122.07515625 -12.24609375 122.625 C-14.20473235 124.01293354 -14.20473235 124.01293354 -15.09375 126.1328125 C-21.04815952 128.26520863 -27.39623856 128.49765839 -33.65625 128.5078125 C-34.45482422 128.53230469 -35.25339844 128.55679688 -36.07617188 128.58203125 C-46.10510987 128.63107251 -53.98808901 123.14313957 -60.9765625 116.28515625 C-70.7185279 105.67864413 -74.72167535 94.28509871 -74.375 79.94140625 C-73.37320841 66.37547842 -68.58846135 53.86767582 -58.390625 44.58203125 C-48.52014954 36.49706863 -37.62705523 34.89937252 -25.22949219 35.84912109 C-17.65758731 36.85489995 -11.88936374 40.41908689 -6.09375 45.1328125 C-6.09597061 44.58379776 -6.09819122 44.03478302 -6.10047913 43.46913147 C-6.12253358 37.77573291 -6.13765726 32.0823464 -6.14868164 26.38891602 C-6.15372298 24.26163236 -6.16055591 22.13435219 -6.16918945 20.00708008 C-6.18126379 16.95653424 -6.18698014 13.90603405 -6.19140625 10.85546875 C-6.19656754 9.89818375 -6.20172882 8.94089874 -6.20704651 7.9546051 C-6.20712204 7.07376755 -6.20719757 6.19292999 -6.20727539 5.28540039 C-6.209496 4.50596573 -6.21171661 3.72653107 -6.21400452 2.92347717 C-5.95733823 -0.8984437 -3.2005131 0.00379208 0 0 Z " fill="#FDFEFA" transform="translate(490.09375,55.8671875)"/>
<path d="M0 0 C2.47941381 1.69683707 4.81265383 3.48407314 7.13671875 5.38671875 C7.78253906 5.87140625 8.42835938 6.35609375 9.09375 6.85546875 C17.27148268 13.26937673 22.11870522 22.26225313 24.13671875 32.38671875 C25.57119379 47.45946528 23.53054695 58.29055642 14.13671875 70.38671875 C9.37531863 75.86559012 4.70941178 80.27333784 -1.86328125 83.38671875 C-2.56727051 83.7233252 -3.27125977 84.05993164 -3.99658203 84.40673828 C-10.53798751 87.30012985 -16.18518494 88.05567768 -23.30078125 87.94921875 C-24.31197021 87.94116211 -25.32315918 87.93310547 -26.36499023 87.92480469 C-33.78694292 87.72571862 -39.61311449 86.59402945 -45.86328125 82.38671875 C-46.91515625 81.76796875 -47.96703125 81.14921875 -49.05078125 80.51171875 C-50.44296875 79.45984375 -50.44296875 79.45984375 -51.86328125 78.38671875 C-52.4871875 77.93039063 -53.11109375 77.4740625 -53.75390625 77.00390625 C-62.17487486 70.35069822 -68.26612214 60.04883494 -69.86328125 49.38671875 C-71.01863831 35.43410397 -69.26288325 23.94563051 -60.86328125 12.38671875 C-54.3257814 4.79949839 -47.3720494 -0.73403432 -37.67578125 -3.42578125 C-36.55659302 -3.73986938 -36.55659302 -3.73986938 -35.41479492 -4.06030273 C-23.2586227 -7.27223038 -11.13212616 -6.27226208 0 0 Z " fill="#FCFEF8" transform="translate(590.86328125,96.61328125)"/>
<path d="M0 0 C6.55817615 4.98500046 13.67782471 11.07500061 16.16796875 19.16796875 C16.68359375 20.30234375 17.19921875 21.43671875 17.73046875 22.60546875 C21.66141792 32.34738625 21.7056452 44.93203222 18.21484375 54.828125 C11.79458162 69.17788999 1.71808028 78.36180342 -12.83203125 84.16796875 C-26.84520378 87.2710267 -40.84089337 85.87053112 -53.34375 78.734375 C-64.135951 71.18171775 -70.88193836 60.76395203 -73.28515625 47.96484375 C-74.01129791 42.92334597 -74.33113128 38.23819123 -73.83203125 33.16796875 C-73.76113281 32.36359375 -73.69023438 31.55921875 -73.6171875 30.73046875 C-72.11422489 20.19284325 -66.2552263 9.70292319 -57.83203125 3.16796875 C-40.95011406 -9.2658624 -18.1612992 -11.74848183 0 0 Z " fill="#FCFEF8" transform="translate(697.83203125,98.83203125)"/>
<path d="M0 0 C0.91015869 -0.01458252 1.82031738 -0.02916504 2.75805664 -0.04418945 C9.47500244 0.05620878 14.69014001 1.75392995 20.75 4.5625 C21.760625 4.975 22.77125 5.3875 23.8125 5.8125 C33.5888223 11.63669201 39.59875387 19.47216835 42.8984375 30.34765625 C43.92830682 34.74918969 44.01207986 38.99773162 43.9375 43.5 C43.9365332 44.64952148 43.9365332 44.64952148 43.93554688 45.82226562 C43.89091099 51.42158901 43.89091099 51.42158901 42.75 52.5625 C40.69443339 52.65663687 38.63559819 52.67992998 36.57788086 52.67602539 C35.93399918 52.67617142 35.29011749 52.67631744 34.62672424 52.6764679 C32.48939697 52.67576885 30.35215587 52.66797691 28.21484375 52.66015625 C26.73653715 52.65829204 25.25822993 52.65686815 23.77992249 52.65586853 C19.88201198 52.65204359 15.98413851 52.64221352 12.08624268 52.63116455 C8.11153667 52.62094992 4.13682471 52.6163708 0.16210938 52.61132812 C-7.641944 52.60059122 -15.44596682 52.58351509 -23.25 52.5625 C-22.34030875 54.51224148 -21.41551562 56.45494182 -20.484375 58.39453125 C-19.71432129 60.01838745 -19.71432129 60.01838745 -18.92871094 61.67504883 C-16.57170324 65.72919804 -14.53256696 66.8330018 -10.25 68.5625 C-9.26 69.0575 -9.26 69.0575 -8.25 69.5625 C1.25328066 70.2847906 9.99238303 70.94657382 17.75 64.5625 C18.74 63.5725 18.74 63.5725 19.75 62.5625 C22.625 62.125 22.625 62.125 25.75 62.5625 C27.625 64.6875 27.625 64.6875 29.75 67.5625 C31.79923294 69.13666519 33.89621078 70.59734618 36.04296875 72.03515625 C38.03349753 73.81615569 38.37497556 74.95971847 38.75 77.5625 C26.55849651 88.01606576 15.97436121 92.91764011 -0.0625 92.9375 C-1.09181641 92.96199219 -2.12113281 92.98648438 -3.18164062 93.01171875 C-16.01212818 93.0604113 -25.98021744 87.51780431 -35.375 79.0625 C-45.10957406 68.95727081 -47.60985302 56.80248981 -47.39453125 43.2421875 C-46.86156034 29.67303633 -40.52077147 18.36188035 -30.7421875 9.140625 C-21.84349961 1.89646702 -11.10273489 0.10185995 0 0 Z " fill="#FBFEF6" transform="translate(195.25,91.4375)"/>
<path d="M0 0 C12.05401735 6.6984112 18.99332851 15.38740783 23.18637085 28.35293579 C24.55975775 33.85613699 24.52824028 39.19973809 24.44140625 44.84375 C24.43647408 46.64589714 24.43647408 46.64589714 24.43144226 48.48445129 C24.42109687 50.99790958 24.4012775 53.5113455 24.37231445 56.0246582 C24.32780683 59.89091983 24.31080473 63.75655943 24.29882812 67.62304688 C24.2854205 70.07162366 24.27050211 72.52019275 24.25390625 74.96875 C24.24651932 76.12900192 24.23913239 77.28925385 24.23152161 78.48466492 C24.21868637 79.54699844 24.20585114 80.60933197 24.19262695 81.70385742 C24.18278275 82.64251144 24.17293854 83.58116547 24.16279602 84.54826355 C24.015625 86.67578125 24.015625 86.67578125 23.015625 87.67578125 C21.23491254 87.76304348 19.4507936 87.78277166 17.66796875 87.7734375 C16.58837891 87.77021484 15.50878906 87.76699219 14.39648438 87.76367188 C13.26017578 87.75529297 12.12386719 87.74691406 10.953125 87.73828125 C9.81294922 87.73376953 8.67277344 87.72925781 7.49804688 87.72460938 C4.67052149 87.71277872 1.8430986 87.69629535 -0.984375 87.67578125 C-0.99024124 87.05239365 -0.99610748 86.42900604 -1.00215149 85.78672791 C-1.06623223 79.2811078 -1.15068986 72.77597566 -1.24682617 66.27075195 C-1.28001966 63.84503627 -1.30806884 61.41924439 -1.33081055 58.9934082 C-1.36445831 55.50048441 -1.41678131 52.0082554 -1.47265625 48.515625 C-1.47904617 47.43619125 -1.4854361 46.35675751 -1.49201965 45.24461365 C-1.66780702 36.18152491 -3.45659788 30.35536714 -9.984375 23.67578125 C-15.3728372 19.73300403 -21.56911687 19.78337001 -27.984375 20.67578125 C-33.68645317 22.83482056 -37.07327567 26.31935848 -39.984375 31.67578125 C-40.98307249 34.67187373 -41.13170741 36.73270691 -41.17382812 39.86572266 C-41.19890442 41.45219101 -41.19890442 41.45219101 -41.2244873 43.07070923 C-41.23806274 44.21139862 -41.25163818 45.35208801 -41.265625 46.52734375 C-41.28403442 47.69711761 -41.30244385 48.86689148 -41.32141113 50.07211304 C-41.40024678 55.08834522 -41.46801772 60.10471281 -41.53662109 65.12109375 C-41.58819187 68.77741463 -41.64549048 72.43361426 -41.703125 76.08984375 C-41.71670044 77.2345816 -41.73027588 78.37931946 -41.7442627 79.55874634 C-41.76933899 81.13575821 -41.76933899 81.13575821 -41.79492188 82.74462891 C-41.81371399 84.14003403 -41.81371399 84.14003403 -41.83288574 85.56362915 C-41.984375 87.67578125 -41.984375 87.67578125 -42.984375 88.67578125 C-50.904375 88.67578125 -58.824375 88.67578125 -66.984375 88.67578125 C-67.314375 72.83578125 -67.644375 56.99578125 -67.984375 40.67578125 C-72.274375 39.35578125 -76.564375 38.03578125 -80.984375 36.67578125 C-88.50647159 32.12176753 -92.68056041 26.06514382 -94.984375 17.67578125 C-95.17773438 17.06863281 -95.37109375 16.46148437 -95.5703125 15.8359375 C-96.17374066 12.68786418 -96.07651151 9.62652424 -96.046875 6.42578125 C-96.03785156 5.1625 -96.02882813 3.89921875 -96.01953125 2.59765625 C-96.00792969 1.6334375 -95.99632813 0.66921875 -95.984375 -0.32421875 C-92.00522341 -0.35308859 -88.02609847 -0.37097281 -84.046875 -0.38671875 C-82.91056641 -0.39509766 -81.77425781 -0.40347656 -80.60351562 -0.41210938 C-79.52392578 -0.41533203 -78.44433594 -0.41855469 -77.33203125 -0.421875 C-75.83168335 -0.42973022 -75.83168335 -0.42973022 -74.30102539 -0.43774414 C-71.984375 -0.32421875 -71.984375 -0.32421875 -70.984375 0.67578125 C-70.48423986 3.93575301 -70.08289194 7.20327557 -69.6796875 10.4765625 C-68.98097362 13.69143144 -68.16205352 15.26605501 -65.984375 17.67578125 C-63.61203889 17.63797827 -63.61203889 17.63797827 -60.984375 16.67578125 C-60.01913168 15.27784265 -59.06323779 13.87129368 -58.18359375 12.41796875 C-45.99204422 -5.29353317 -18.48404264 -7.92492166 0 0 Z " fill="#FCFEF9" transform="translate(113.984375,94.32421875)"/>
<path d="M0 0 C8.58754666 0.23196823 8.58754666 0.23196823 12.4074707 2.95727539 C16.17222801 7.14508275 18.62415665 11.95078948 20.97241211 17.03393555 C22.655479 20.46591239 24.69351894 23.31690963 27.08325195 26.29907227 C27.74325195 26.29907227 28.40325195 26.29907227 29.08325195 26.29907227 C30.43794075 24.68703512 30.43794075 24.68703512 31.76293945 22.57250977 C32.27985352 21.7874707 32.79676758 21.00243164 33.3293457 20.19360352 C33.86688477 19.3621582 34.40442383 18.53071289 34.95825195 17.67407227 C35.48805664 16.86583008 36.01786133 16.05758789 36.5637207 15.22485352 C37.59960485 13.64403776 38.63319852 12.06171832 39.66430664 10.4777832 C44.81847046 2.56385376 44.81847046 2.56385376 46.08325195 1.29907227 C48.00992703 1.21159019 49.93977056 1.19209893 51.8684082 1.20141602 C53.03823242 1.20463867 54.20805664 1.20786133 55.41333008 1.21118164 C56.6450293 1.21956055 57.87672852 1.22793945 59.14575195 1.23657227 C60.99910156 1.24333984 60.99910156 1.24333984 62.88989258 1.25024414 C65.95439312 1.26207619 69.01879917 1.27856053 72.08325195 1.29907227 C73.21411133 6.06665039 73.21411133 6.06665039 72.03637695 8.15844727 C71.4743457 8.78235352 70.91231445 9.40625977 70.33325195 10.04907227 C66.17653927 15.01725476 62.76445427 20.30969806 59.30004883 25.76757812 C57.05602931 29.28763157 54.78746604 32.76327564 52.34106445 36.14672852 C51.70563721 37.02893066 51.70563721 37.02893066 51.05737305 37.92895508 C49.90416053 39.51410479 48.73635131 41.08860572 47.56762695 42.66235352 C45.90490139 45.09111939 45.90490139 45.09111939 46.13012695 47.33813477 C47.37190673 49.89294398 48.89944776 52.07394485 50.58325195 54.36157227 C52.58550566 57.09005324 54.00936965 59.07742537 55.08325195 62.29907227 C56.24161405 63.42336489 57.4013132 64.5463119 58.56762695 65.66235352 C61.12258969 68.42144987 63.12676066 71.56094222 65.2355957 74.66625977 C67.58800262 78.01831529 70.16606402 81.15596049 72.7980957 84.29125977 C74.08325195 86.29907227 74.08325195 86.29907227 74.08325195 90.29907227 C50.0840551 92.50997216 50.0840551 92.50997216 43.88842773 89.08618164 C40.6140587 85.99550384 38.73162407 82.23382303 36.94506836 78.14672852 C35.62818128 75.32344199 33.80586377 72.92103892 31.95825195 70.42407227 C30.99919763 69.04957506 30.0405506 67.67479283 29.08325195 66.29907227 C25.01188071 67.65619601 23.55853407 70.41127823 21.20825195 73.79907227 C20.5759668 74.68079102 20.5759668 74.68079102 19.9309082 75.58032227 C16.56664434 80.35407893 13.95633983 85.1275141 11.08325195 90.29907227 C1.51325195 90.29907227 -8.05674805 90.29907227 -17.91674805 90.29907227 C-16.95453717 85.48801787 -16.31474528 84.06426383 -13.47924805 80.36157227 C-9.81159298 75.48883054 -6.23771529 70.56858695 -2.7265625 65.58276367 C-0.63003332 62.62558833 1.50871199 59.73384789 3.7902832 56.91625977 C4.21768799 56.3799292 4.64509277 55.84359863 5.08544922 55.29101562 C6.26383295 53.82305061 7.46202986 52.37105403 8.66137695 50.92016602 C10.3973448 48.40615876 10.3973448 48.40615876 9.5168457 45.78344727 C5.39571322 38.64164819 0.80345242 31.85288181 -3.9440918 25.11547852 C-6.41541449 21.58711483 -8.86736353 18.04734653 -11.29174805 14.48657227 C-11.95364136 13.53476074 -11.95364136 13.53476074 -12.62890625 12.5637207 C-14.90068011 9.20424905 -16.62874185 6.39937102 -16.91674805 2.29907227 C-13.63801556 -0.97966023 -4.36380492 0.13508493 0 0 Z " fill="#FCFEF8" transform="translate(258.916748046875,91.700927734375)"/>
<path d="M0 0 C7.92 0 15.84 0 24 0 C24 8.25 24 16.5 24 25 C31.26 25 38.52 25 46 25 C46.020625 28.279375 46.04125 31.55875 46.0625 34.9375 C46.071604 35.97253662 46.08070801 37.00757324 46.09008789 38.07397461 C46.09258545 38.88358643 46.09508301 39.69319824 46.09765625 40.52734375 C46.10289307 41.35999756 46.10812988 42.19265137 46.11352539 43.05053711 C46 45 46 45 45 46 C43.5112814 46.08669432 42.018555 46.10703494 40.52734375 46.09765625 C39.62822266 46.09443359 38.72910156 46.09121094 37.80273438 46.08789062 C36.38444336 46.07532227 36.38444336 46.07532227 34.9375 46.0625 C33.98810547 46.05798828 33.03871094 46.05347656 32.06054688 46.04882812 C29.70696935 46.0370011 27.35351523 46.02052025 25 46 C25.04419663 51.46323677 25.1140756 56.92532263 25.20751953 62.38793945 C25.23570259 64.24526803 25.2569304 66.10271595 25.27099609 67.96020508 C25.29246284 70.63424661 25.33913069 73.30685735 25.390625 75.98046875 C25.39185364 76.80773972 25.39308228 77.63501068 25.39434814 78.48735046 C25.49472871 82.46025211 25.71984391 84.54565187 27.85058594 88.0012207 C30.75134927 90.69869338 33.19619199 91.11558905 37.01171875 91.31640625 C37.69451904 91.35451416 38.37731934 91.39262207 39.08081055 91.43188477 C39.94101807 91.47498779 40.80122559 91.51809082 41.6875 91.5625 C44.430625 91.706875 47.17375 91.85125 50 92 C50 98.6 50 105.2 50 112 C44.36713513 114.25314595 40.27133912 114.36701763 34.3125 114.375 C33.36955078 114.39949219 32.42660156 114.42398438 31.45507812 114.44921875 C23.52565672 114.48191739 16.90977222 112.81125616 10.4140625 108.140625 C1.82821419 99.06737045 -0.16684111 91.36752288 -0.09765625 79.10546875 C-0.0962413 78.15811356 -0.09482635 77.21075836 -0.09336853 76.23469543 C-0.08778611 73.21893105 -0.07523682 70.20324182 -0.0625 67.1875 C-0.05748273 65.13867295 -0.05292022 63.08984473 -0.04882812 61.04101562 C-0.03782243 56.02731494 -0.02056988 51.0136702 0 46 C-1.28777344 46.01160156 -2.57554687 46.02320313 -3.90234375 46.03515625 C-5.58072772 46.0445327 -7.25911326 46.05363305 -8.9375 46.0625 C-9.78763672 46.07087891 -10.63777344 46.07925781 -11.51367188 46.08789062 C-12.32255859 46.09111328 -13.13144531 46.09433594 -13.96484375 46.09765625 C-14.7137085 46.10289307 -15.46257324 46.10812988 -16.23413086 46.11352539 C-18 46 -18 46 -19 45 C-19.09880797 43.52347336 -19.13079245 42.04232764 -19.1328125 40.5625 C-19.13410156 39.66789062 -19.13539063 38.77328125 -19.13671875 37.8515625 C-19.13091797 36.44003906 -19.13091797 36.44003906 -19.125 35 C-19.12886719 34.05898437 -19.13273437 33.11796875 -19.13671875 32.1484375 C-19.13542969 31.25382812 -19.13414062 30.35921875 -19.1328125 29.4375 C-19.13112061 28.19806641 -19.13112061 28.19806641 -19.12939453 26.93359375 C-19 25 -19 25 -18 24 C-15.53733145 23.78841034 -13.09227116 23.62382216 -10.625 23.5 C-5.23644863 23.24723559 -5.23644863 23.24723559 0 22 C0 14.74 0 7.48 0 0 Z " fill="#FCFEF7" transform="translate(359,69)"/>
<path d="M0 0 C0.02887512 3.64581687 0.04675585 7.29160463 0.0625 10.9375 C0.07087891 11.97841797 0.07925781 13.01933594 0.08789062 14.09179688 C0.09111328 15.08115234 0.09433594 16.07050781 0.09765625 17.08984375 C0.10289307 18.00628662 0.10812988 18.92272949 0.11352539 19.86694336 C0 22 0 22 -1 23 C-2.80796499 22.97682096 -4.61611123 22.94767773 -6.4230957 22.88378906 C-15.90511609 22.54760896 -15.90511609 22.54760896 -24 27 C-29.55953927 32.3609843 -30.3418118 41.03438744 -30.49235535 48.33802795 C-30.50194023 49.84326271 -30.50194023 49.84326271 -30.51171875 51.37890625 C-30.52966995 52.43158188 -30.54762115 53.48425751 -30.56611633 54.5688324 C-30.61989126 57.90001532 -30.65400969 61.23105769 -30.6875 64.5625 C-30.72070202 66.8340038 -30.75519431 69.10548912 -30.79101562 71.37695312 C-30.87800518 76.91798532 -30.93835578 82.45839725 -31 88 C-39.25 88 -47.5 88 -56 88 C-56.02255012 76.54349633 -56.04091456 65.08700729 -56.05181217 53.63048649 C-56.05704122 48.31134787 -56.06413927 42.99222516 -56.07543945 37.6730957 C-56.08626755 32.54436015 -56.09227667 27.41563994 -56.09487724 22.28689384 C-56.09673163 20.32558386 -56.10035251 18.36427476 -56.10573006 16.40297127 C-56.11293946 13.66584553 -56.11399099 10.92878403 -56.11352539 8.19165039 C-56.11712067 7.37238068 -56.12071594 6.55311096 -56.12442017 5.70901489 C-56.11405216 0.11405216 -56.11405216 0.11405216 -55 -1 C-53.30441274 -1.09932153 -51.60474253 -1.13080007 -49.90625 -1.1328125 C-48.87628906 -1.13410156 -47.84632813 -1.13539062 -46.78515625 -1.13671875 C-45.15900391 -1.13091797 -45.15900391 -1.13091797 -43.5 -1.125 C-42.41589844 -1.12886719 -41.33179688 -1.13273437 -40.21484375 -1.13671875 C-39.18488281 -1.13542969 -38.15492188 -1.13414063 -37.09375 -1.1328125 C-35.66579102 -1.13112061 -35.66579102 -1.13112061 -34.20898438 -1.12939453 C-32 -1 -32 -1 -31 0 C-30.92773498 1.85287502 -30.9161878 3.70833878 -30.9375 5.5625 C-30.94652344 6.57441406 -30.95554687 7.58632812 -30.96484375 8.62890625 C-30.97644531 9.41136719 -30.98804688 10.19382812 -31 11 C-30.34 11 -29.68 11 -29 11 C-28.835 10.29875 -28.67 9.5975 -28.5 8.875 C-25.8544925 3.80444396 -21.15337737 1.00796387 -16.0625 -1.375 C-10.20830465 -2.56973374 -5.33696188 -2.81304403 0 0 Z " fill="#FDFEFB" transform="translate(786,94)"/>
<path d="M0 0 C4.42875954 4.00131894 6.42254082 8.92245194 7.1953125 14.7734375 C7.49118565 22.44641442 6.39244789 29.77496283 1.19921875 35.72265625 C-0.52099032 37.27504005 -2.26164249 38.589681 -4.1875 39.875 C-5.54875 40.803125 -5.54875 40.803125 -6.9375 41.75 C-12.97148374 43.83868668 -18.81784688 43.5069075 -24.9375 41.875 C-31.05986327 38.10739184 -35.56075575 32.84135776 -37.76171875 25.94140625 C-38.53016318 22.21198329 -38.43339428 18.65645525 -38.1875 14.875 C-38.19136719 14.19308594 -38.19523437 13.51117188 -38.19921875 12.80859375 C-37.96692234 6.56104299 -34.6246742 3.01819992 -30.1875 -1.125 C-21.40560297 -8.42072984 -8.73464996 -5.82309997 0 0 Z " fill="#90D506" transform="translate(479.1875,119.125)"/>
<path d="M0 0 C6.58850804 -0.42918098 11.66131815 1.42600856 17.03125 5.23046875 C22.6563489 11.08330445 24.22288919 15.99647171 24.28125 24.04296875 C24.301875 24.74228516 24.3225 25.44160156 24.34375 26.16210938 C24.38727206 31.97774416 23.00701653 35.77714728 19.3828125 40.27734375 C18.81304688 40.839375 18.24328125 41.40140625 17.65625 41.98046875 C17.09164062 42.5528125 16.52703125 43.12515625 15.9453125 43.71484375 C10.5504582 47.98668756 4.3262399 47.87988877 -2.29296875 47.671875 C-8.57812473 46.91712194 -11.51236795 44.05190506 -15.51953125 39.44921875 C-20.84280487 32.6114363 -20.71610698 24.63823473 -19.96875 16.23046875 C-17.93649061 9.9348826 -12.49285721 4.68303576 -6.96875 1.23046875 C-4.64327806 0.49960614 -2.41251423 0.28241734 0 0 Z " fill="#90D506" transform="translate(668.96875,113.76953125)"/>
<path d="M0 0 C5.40536057 4.82988492 8.51867105 9.40063447 9.28125 16.6875 C9.66563094 24.22136649 8.3604223 29.79522153 4 36 C0.39377976 39.91980461 -3.64104238 42.76256244 -8.98828125 43.30078125 C-22.53770241 43.34854654 -22.53770241 43.34854654 -27.90234375 38.16015625 C-34.92638765 30.44663564 -35.78632127 24.67145248 -35.51171875 14.44921875 C-35.13406953 9.38321837 -33.48482061 6.28025909 -29.9375 2.6328125 C-29.298125 2.09398438 -28.65875 1.55515625 -28 1 C-27.195625 0.31550781 -27.195625 0.31550781 -26.375 -0.3828125 C-18.41947112 -6.30802411 -7.97243756 -5.11493306 0 0 Z " fill="#90D508" transform="translate(581,118)"/>
<path d="M0 0 C3.85721284 2.33594139 7.23271798 5.52128559 9.5 9.4375 C9.5 10.7575 9.5 12.0775 9.5 13.4375 C-4.03 13.4375 -17.56 13.4375 -31.5 13.4375 C-30.37096774 6.66330645 -30.37096774 6.66330645 -26.125 3.125 C-25.33351562 2.44824219 -24.54203125 1.77148438 -23.7265625 1.07421875 C-17.62644199 -3.40990493 -6.74611661 -3.0652258 0 0 Z " fill="#91D509" transform="translate(204.5,113.5625)"/>
<path d="M0 0 C1.02996094 -0.00128906 2.05992187 -0.00257812 3.12109375 -0.00390625 C4.74724609 0.00189453 4.74724609 0.00189453 6.40625 0.0078125 C7.49035156 0.00394531 8.57445312 0.00007813 9.69140625 -0.00390625 C10.72136719 -0.00261719 11.75132812 -0.00132813 12.8125 0 C14.24045898 0.00169189 14.24045898 0.00169189 15.69726562 0.00341797 C17.90625 0.1328125 17.90625 0.1328125 18.90625 1.1328125 C19.00442208 2.73738441 19.03256921 4.34628524 19.03323364 5.95385742 C19.03605347 6.99714203 19.03887329 8.04042664 19.04177856 9.11532593 C19.03975433 10.26965118 19.0377301 11.42397644 19.03564453 12.61328125 C19.03739685 13.82126373 19.03914917 15.02924622 19.04095459 16.27383423 C19.04461278 19.59607204 19.04373968 22.91824793 19.0405755 26.24048233 C19.03805152 29.71004574 19.04038955 33.17960642 19.04196167 36.64916992 C19.04378325 42.47673012 19.04137735 48.30427766 19.03662109 54.13183594 C19.03117849 60.87842542 19.03294116 67.62498469 19.0384475 74.37157345 C19.04297895 80.15415424 19.04362902 85.93672591 19.04100883 91.7193079 C19.03944623 95.17732806 19.03925182 98.63533401 19.04254532 102.09335327 C19.04595839 105.94636214 19.04123377 109.79933689 19.03564453 113.65234375 C19.03766876 114.80666901 19.03969299 115.96099426 19.04177856 117.15029907 C19.03754883 118.71522598 19.03754883 118.71522598 19.03323364 120.31176758 C19.03285662 121.22396561 19.03247959 122.13616364 19.03209114 123.07600403 C18.90625 125.1328125 18.90625 125.1328125 17.90625 126.1328125 C16.19852642 126.21995081 14.48726351 126.23981257 12.77734375 126.23046875 C11.22563477 126.22563477 11.22563477 126.22563477 9.64257812 126.22070312 C8.55396484 126.21232422 7.46535156 126.20394531 6.34375 126.1953125 C4.7050293 126.18854492 4.7050293 126.18854492 3.03320312 126.18164062 C0.32416505 126.16981076 -2.38476599 126.15332793 -5.09375 126.1328125 C-5.09375 125.8028125 -5.09375 125.4728125 -5.09375 125.1328125 C2.16625 125.1328125 9.42625 125.1328125 16.90625 125.1328125 C16.90625 84.5428125 16.90625 43.9528125 16.90625 2.1328125 C9.97625 2.1328125 3.04625 2.1328125 -4.09375 2.1328125 C-4.09375 16.9828125 -4.09375 31.8328125 -4.09375 47.1328125 C-5.74375 46.8028125 -7.39375 46.4728125 -9.09375 46.1328125 C-8.76375 45.4728125 -8.43375 44.8128125 -8.09375 44.1328125 C-7.43375 44.4628125 -6.77375 44.7928125 -6.09375 45.1328125 C-6.09597061 44.58379776 -6.09819122 44.03478302 -6.10047913 43.46913147 C-6.12253358 37.77573291 -6.13765726 32.0823464 -6.14868164 26.38891602 C-6.15372298 24.26163236 -6.16055591 22.13435219 -6.16918945 20.00708008 C-6.18126379 16.95653424 -6.18698014 13.90603405 -6.19140625 10.85546875 C-6.19656754 9.89818375 -6.20172882 8.94089874 -6.20704651 7.9546051 C-6.20712204 7.07376755 -6.20719757 6.19292999 -6.20727539 5.28540039 C-6.209496 4.50596573 -6.21171661 3.72653107 -6.21400452 2.92347717 C-5.95733823 -0.8984437 -3.2005131 0.00379208 0 0 Z " fill="#E6F8C6" transform="translate(490.09375,55.8671875)"/>
<path d="M0 0 C1.02996094 -0.00128906 2.05992187 -0.00257812 3.12109375 -0.00390625 C4.74724609 0.00189453 4.74724609 0.00189453 6.40625 0.0078125 C7.49035156 0.00394531 8.57445312 0.00007813 9.69140625 -0.00390625 C10.72136719 -0.00261719 11.75132812 -0.00132813 12.8125 0 C14.24045898 0.00169189 14.24045898 0.00169189 15.69726562 0.00341797 C17.90625 0.1328125 17.90625 0.1328125 18.90625 1.1328125 C19.14106693 3.31574024 19.31988323 5.50484424 19.46875 7.6953125 C19.59443359 9.49162109 19.59443359 9.49162109 19.72265625 11.32421875 C19.78324219 12.25105469 19.84382812 13.17789063 19.90625 14.1328125 C19.24625 14.1328125 18.58625 14.1328125 17.90625 14.1328125 C17.90625 10.1728125 17.90625 6.2128125 17.90625 2.1328125 C10.64625 2.1328125 3.38625 2.1328125 -4.09375 2.1328125 C-4.09375 30.1828125 -4.09375 58.2328125 -4.09375 87.1328125 C3.16625 87.4628125 10.42625 87.7928125 17.90625 88.1328125 C17.90625 72.2928125 17.90625 56.4528125 17.90625 40.1328125 C18.89625 39.6378125 18.89625 39.6378125 19.90625 39.1328125 C19.57625 55.6328125 19.24625 72.1328125 18.90625 89.1328125 C10.65625 89.1328125 2.40625 89.1328125 -6.09375 89.1328125 C-6.11630012 77.67630883 -6.13466456 66.21981979 -6.14556217 54.76329899 C-6.15079122 49.44416037 -6.15788927 44.12503766 -6.16918945 38.8059082 C-6.18001755 33.67717265 -6.18602667 28.54845244 -6.18862724 23.41970634 C-6.19048163 21.45839636 -6.19410251 19.49708726 -6.19948006 17.53578377 C-6.20668946 14.79865803 -6.20774099 12.06159653 -6.20727539 9.32446289 C-6.21087067 8.50519318 -6.21446594 7.68592346 -6.21817017 6.84182739 C-6.20550523 0.00735249 -6.20550523 0.00735249 0 0 Z " fill="#E0F6B7" transform="translate(736.09375,92.8671875)"/>
<path d="M0 0 C0.66 0 1.32 0 2 0 C2.02526787 7.10244999 2.04283201 14.20488848 2.05493164 21.30737305 C2.05997349 23.72567172 2.06680678 26.14396733 2.07543945 28.56225586 C2.08751157 32.02979283 2.09322963 35.49728966 2.09765625 38.96484375 C2.10281754 40.05337143 2.10797882 41.14189911 2.11329651 42.26341248 C2.11340981 43.76485558 2.11340981 43.76485558 2.11352539 45.29663086 C2.115746 46.18265488 2.11796661 47.06867889 2.12025452 47.98155212 C2 50 2 50 1 51 C-6.92 51 -14.84 51 -23 51 C-23.33 34.83 -23.66 18.66 -24 2 C-23.34 2 -22.68 2 -22 2 C-22 17.51 -22 33.02 -22 49 C-14.74 49 -7.48 49 0 49 C0 32.83 0 16.66 0 0 Z " fill="#E7F7C2" transform="translate(70,132)"/>
<path d="M0 0 C7.59 0 15.18 0 23 0 C23 0.33 23 0.66 23 1 C16.07 1 9.14 1 2 1 C2 15.85 2 30.7 2 46 C0.35 45.67 -1.3 45.34 -3 45 C-2.67 44.34 -2.34 43.68 -2 43 C-1.34 43.33 -0.68 43.66 0 44 C0 29.48 0 14.96 0 0 Z " fill="#F3FED2" transform="translate(484,57)"/>
<path d="M0 0 C0.66 0.33 1.32 0.66 2 1 C-1.75 6.75 -1.75 6.75 -4 9 C0.69549443 9.73670236 5.27785224 10.16864429 10.02734375 10.31640625 C11.31318359 10.35830078 12.59902344 10.40019531 13.92382812 10.44335938 C15.26171625 10.483157 16.59960691 10.52286951 17.9375 10.5625 C19.30274562 10.60576654 20.66798018 10.64938321 22.03320312 10.69335938 C25.35537652 10.79901153 28.67761946 10.90111395 32 11 C31.34 10.01 30.68 9.02 30 8 C30.375 5.8125 30.375 5.8125 31 4 C33.62386487 7.06117568 34 7.73173127 34 12 C20.47 12 6.94 12 -7 12 C-5.83215137 4.99290822 -4.93548494 4.41043335 0 0 Z " fill="#A4DB3C" transform="translate(180,115)"/>
<path d="M0 0 C1.81951172 0.05414063 1.81951172 0.05414063 3.67578125 0.109375 C6.66210076 0.20343231 9.64191402 0.33473208 12.625 0.5 C13.12 2.975 13.12 2.975 13.625 5.5 C12.965 5.83 12.305 6.16 11.625 6.5 C11.625 5.18 11.625 3.86 11.625 2.5 C3.375 2.5 -4.875 2.5 -13.375 2.5 C-13.375 3.16 -13.375 3.82 -13.375 4.5 C-14.035 4.5 -14.695 4.5 -15.375 4.5 C-15.436875 5.2425 -15.49875 5.985 -15.5625 6.75 C-16.61685138 10.3185739 -18.37409773 11.42245228 -21.375 13.5 C-17.62396563 1.49669 -12.07771668 -0.68043474 0 0 Z " fill="#DEF3AF" transform="translate(318.375,92.5)"/>
<path d="M0 0 C8.58 0 17.16 0 26 0 C26 0.66 26 1.32 26 2 C17.75 2 9.5 2 1 2 C1.33 3.65 1.66 5.3 2 7 C1.01 6.34 0.02 5.68 -1 5 C-0.67 3.35 -0.34 1.7 0 0 Z " fill="#E0F4B1" transform="translate(243,93)"/>
<path d="M0 0 C1.03802604 3.11407811 0.77120535 4.69833768 0.265625 7.8515625 C-0.58911503 14.76490099 -0.25408252 21.33376373 1.66015625 28.02734375 C2.05264737 30.3055968 1.69844543 31.8167475 1 34 C-3.26653496 24.83837806 -4.80338534 15.21354136 -2.31640625 5.265625 C-1.5 3.0625 -1.5 3.0625 0 0 Z " fill="#9BD531" transform="translate(625,122)"/>
<path d="M0 0 C1.299375 0.185625 2.59875 0.37125 3.9375 0.5625 C4.948125 0.706875 5.95875 0.85125 7 1 C7 1.66 7 2.32 7 3 C5.86570557 2.99214478 5.86570557 2.99214478 4.70849609 2.98413086 C1.26400593 2.96327276 -2.1804709 2.95031174 -5.625 2.9375 C-6.81480469 2.92912109 -8.00460938 2.92074219 -9.23046875 2.91210938 C-10.38417969 2.90888672 -11.53789062 2.90566406 -12.7265625 2.90234375 C-13.78439941 2.89710693 -14.84223633 2.89187012 -15.93212891 2.88647461 C-19.03362346 3.00124422 -21.95347657 3.42303718 -25 4 C-25 3.34 -25 2.68 -25 2 C-22.14776949 1.4657727 -19.29409862 0.94736834 -16.4375 0.4375 C-15.63763672 0.28603516 -14.83777344 0.13457031 -14.01367188 -0.02148438 C-9.04811036 -0.89299109 -5.01018228 -0.9921153 0 0 Z " fill="#9FD735" transform="translate(203,90)"/>
<path d="M0 0 C0.66 0.66 1.32 1.32 2 2 C-2.62 2 -7.24 2 -12 2 C-12 2.66 -12 3.32 -12 4 C-13.64453125 5.18359375 -13.64453125 5.18359375 -15.8125 6.4375 C-18.59421869 8.05383563 -20.81176681 9.63229027 -23 12 C-23 9 -23 9 -20.75 6.5 C-14.29867666 0.6351606 -8.76819035 -1.01635212 0 0 Z " fill="#A9DB4A" transform="translate(676,114)"/>
<path d="M0 0 C0.33 0 0.66 0 1 0 C1 9.9 1 19.8 1 30 C-3.52183053 23.21725421 -2.65450143 14.68395372 -1.55078125 6.78515625 C-1.08934838 4.50417248 -0.5929592 2.25006839 0 0 Z " fill="#E7F9C3" transform="translate(418,122)"/>
<path d="M0 0 C2.13876592 3.20814888 2.25576428 4.0877073 2.265625 7.78125 C2.26820313 8.70550781 2.27078125 9.62976563 2.2734375 10.58203125 C2.26570312 11.54496094 2.25796875 12.50789062 2.25 13.5 C2.25773438 14.46292969 2.26546875 15.42585937 2.2734375 16.41796875 C2.27085937 17.34222656 2.26828125 18.26648438 2.265625 19.21875 C2.26336914 20.06373047 2.26111328 20.90871094 2.25878906 21.77929688 C2 24 2 24 0 27 C-0.309375 28.010625 -0.61875 29.02125 -0.9375 30.0625 C-2 33 -2 33 -5 35 C-4.80664062 34.43152344 -4.61328125 33.86304688 -4.4140625 33.27734375 C-4.15367187 32.50519531 -3.89328125 31.73304688 -3.625 30.9375 C-3.24214844 29.80634766 -3.24214844 29.80634766 -2.8515625 28.65234375 C-2.43003906 27.33943359 -2.43003906 27.33943359 -2 26 C-1.45859375 24.4221875 -1.45859375 24.4221875 -0.90625 22.8125 C0.20538031 18.13598629 0.21955558 13.84483029 0.125 9.0625 C0.11597656 8.18787109 0.10695313 7.31324219 0.09765625 6.41210938 C0.0742957 4.27461936 0.03843247 2.13727214 0 0 Z " fill="#AFDE56" transform="translate(717,127)"/>
<path d="M0 0 C0.33 1.32 0.66 2.64 1 4 C0.19175781 4.45890625 -0.61648438 4.9178125 -1.44921875 5.390625 C-5.176111 9.20312733 -4.77829067 12.60339653 -4.8125 17.75 C-4.83763672 18.63816406 -4.86277344 19.52632812 -4.88867188 20.44140625 C-4.9474526 22.62804918 -4.98379539 24.81269532 -5 27 C-7.74210557 22.88684165 -7.22669243 19.80744286 -7 15 C-6.99355469 14.30003906 -6.98710937 13.60007813 -6.98046875 12.87890625 C-6.6697613 6.97546476 -4.03389432 3.94754184 0 0 Z " fill="#9DD632" transform="translate(448,119)"/>
<path d="M0 0 C1.32 0.99 2.64 1.98 4 3 C-6.89 3.495 -6.89 3.495 -18 4 C-18 3.34 -18 2.68 -18 2 C-12.17903884 0.4587526 -6.02712242 -1.07174452 0 0 Z " fill="#9ED631" transform="translate(463,89)"/>
<path d="M0 0 C0.66 0 1.32 0 2 0 C2.04898437 0.90621094 2.09796875 1.81242187 2.1484375 2.74609375 C2.57579127 9.70901291 3.25281404 16.24421429 5 23 C3.0625 21.9375 3.0625 21.9375 1 20 C-0.68595223 13.53718312 -0.08977187 6.63314409 0 0 Z " fill="#A3D93E" transform="translate(16,94)"/>
<path d="M0 0 C0 0.33 0 0.66 0 1 C-8.91 1 -17.82 1 -27 1 C-19.17691174 -4.21539218 -8.58894317 -2.64275174 0 0 Z " fill="#E0F4B7" transform="translate(582,93)"/>
<path d="M0 0 C0.66 0.33 1.32 0.66 2 1 C-1.75 6.75 -1.75 6.75 -4 9 C-1.69 9.33 0.62 9.66 3 10 C3 10.33 3 10.66 3 11 C0.03 11 -2.94 11 -6 11 C-6.375 8.875 -6.375 8.875 -6 6 C-4.20659643 3.76086748 -2.16547337 1.87545461 0 0 Z " fill="#9ED731" transform="translate(180,115)"/>
<path d="M0 0 C5.65513223 0.06805213 8.77492452 1.07494511 13.3125 4.375 C11.6875 5.0625 11.6875 5.0625 9.3125 5.375 C8.466875 4.900625 7.62125 4.42625 6.75 3.9375 C1.92838297 1.74585589 -2.47214826 2.1244404 -7.6875 2.375 C-5.04233913 -0.27016087 -3.68693485 0.04626016 0 0 Z " fill="#A2D83B" transform="translate(91.6875,113.625)"/>
<path d="M0 0 C0.33 0 0.66 0 1 0 C1.02888146 3.31248187 1.04675799 6.62493167 1.0625 9.9375 C1.07087891 10.88302734 1.07925781 11.82855469 1.08789062 12.80273438 C1.09111328 13.70185547 1.09433594 14.60097656 1.09765625 15.52734375 C1.10289307 16.35999756 1.10812988 17.19265137 1.11352539 18.05053711 C1 20 1 20 0 21 C-1.99958364 21.04080783 -4.00045254 21.04254356 -6 21 C-5.67 20.34 -5.34 19.68 -5 19 C-3.68 18.67 -2.36 18.34 -1 18 C-0.505 9.09 -0.505 9.09 0 0 Z " fill="#99D229" transform="translate(409,163)"/>
<path d="M0 0 C6.875 0.875 6.875 0.875 8 2 C10.85877909 2.23701239 13.69883297 2.42219182 16.5625 2.5625 C17.36880859 2.60568359 18.17511719 2.64886719 19.00585938 2.69335938 C21.00368805 2.79975262 23.0018207 2.90040888 25 3 C25 3.33 25 3.66 25 4 C21.95778935 4.08132642 18.9177762 4.14065374 15.875 4.1875 C14.59109375 4.22520508 14.59109375 4.22520508 13.28125 4.26367188 C8.05384474 4.32398809 4.56718676 3.85261993 0 1 C0 0.67 0 0.34 0 0 Z " fill="#D9F5A2" transform="translate(441,180)"/>
<path d="M0 0 C0.75 1.75 0.75 1.75 1 4 C-1.21867135 6.77333918 -2.60620325 7.86873442 -6 9 C-6.33 9.66 -6.66 10.32 -7 11 C-8.32 10.67 -9.64 10.34 -11 10 C-10.37351562 9.52949219 -9.74703125 9.05898437 -9.1015625 8.57421875 C-8.28429687 7.95160156 -7.46703125 7.32898438 -6.625 6.6875 C-5.81289063 6.07261719 -5.00078125 5.45773438 -4.1640625 4.82421875 C-1.80220611 3.00519317 -1.80220611 3.00519317 0 0 Z " fill="#A4D83B" transform="translate(708,166)"/>
<path d="M0 0 C6.875 0.875 6.875 0.875 8 2 C10.52596259 2.23653523 13.03107207 2.42173692 15.5625 2.5625 C16.27341797 2.60568359 16.98433594 2.64886719 17.71679688 2.69335938 C19.47761912 2.79971777 21.2387832 2.90038846 23 3 C23 3.33 23 3.66 23 4 C20.29105233 4.08144943 17.58458737 4.14070614 14.875 4.1875 C13.73417969 4.22520508 13.73417969 4.22520508 12.5703125 4.26367188 C7.5975739 4.32797453 4.36383518 3.65594442 0 1 C0 0.67 0 0.34 0 0 Z " fill="#B6E064" transform="translate(181,158)"/>
<path d="M0 0 C0.66 0.33 1.32 0.66 2 1 C1.0919838 2.13199353 0.17316174 3.25532363 -0.75 4.375 C-1.26046875 5.00148438 -1.7709375 5.62796875 -2.296875 6.2734375 C-4.08199481 8.08312318 -5.67949644 9.00117455 -8 10 C-6.5682479 4.98886765 -4.01554307 3.05530451 0 0 Z " fill="#A3D937" transform="translate(556,117)"/>
<path d="M0 0 C4.75 1.875 4.75 1.875 7 3 C9.54615009 3.23172827 12.07396225 3.41894529 14.625 3.5625 C15.33140625 3.60568359 16.0378125 3.64886719 16.765625 3.69335938 C18.51018537 3.79944751 20.25506697 3.90022889 22 4 C22 4.33 22 4.66 22 5 C19.43685501 5.08132187 16.87631582 5.14064175 14.3125 5.1875 C13.2306543 5.22520508 13.2306543 5.22520508 12.12695312 5.26367188 C7.53853126 5.32652697 4.63065526 4.86703752 1 2 C0.67 1.34 0.34 0.68 0 0 Z " fill="#9ED72E" transform="translate(386,156)"/>
<path d="M0 0 C0.33 0.66 0.66 1.32 1 2 C-2.49087093 6.0042343 -4.64951939 7.62671065 -10 8 C-6.66666667 5.33333333 -3.33333333 2.66666667 0 0 Z " fill="#A0D834" transform="translate(599,172)"/>
<path d="M0 0 C3.39914975 1.13304992 4.05254451 2.12518475 6 5 C5.67 5.66 5.34 6.32 5 7 C4.566875 6.525625 4.13375 6.05125 3.6875 5.5625 C1.97690387 3.76313043 1.97690387 3.76313043 -1 3 C-1.33 4.32 -1.66 5.64 -2 7 C-2.66 7 -3.32 7 -4 7 C-2.92598892 4.08482708 -2.22189824 2.22189824 0 0 Z " fill="#A4D841" transform="translate(286,157)"/>
<path d="M0 0 C0.33 1.32 0.66 2.64 1 4 C0.21625 4.598125 -0.5675 5.19625 -1.375 5.8125 C-4.14574323 7.91085249 -4.14574323 7.91085249 -6 11 C-5.55530671 5.96014269 -3.28656638 3.62365012 0 0 Z " fill="#B0DE53" transform="translate(448,119)"/>
<path d="M0 0 C2.64 0 5.28 0 8 0 C8 0.66 8 1.32 8 2 C9.32 2 10.64 2 12 2 C12.33 2.99 12.66 3.98 13 5 C11.58208592 4.54554036 10.16571954 4.08625056 8.75 3.625 C7.96109375 3.36976562 7.1721875 3.11453125 6.359375 2.8515625 C4.13372042 2.04826333 2.09068328 1.10288338 0 0 Z " fill="#9DD832" transform="translate(578,92)"/>
<path d="M0 0 C0.33 0.99 0.66 1.98 1 3 C-0.375 4.5 -0.375 4.5 -2 6 C-2.66 6 -3.32 6 -4 6 C-4 6.99 -4 7.98 -4 9 C-4.66 9 -5.32 9 -6 9 C-4.68775452 5.06326356 -3.08089673 2.77280706 0 0 Z " fill="#EBFACD" transform="translate(60,102)"/>
<path d="M0 0 C0.66 0.33 1.32 0.66 2 1 C1.34 2.32 0.68 3.64 0 5 C-0.99 5 -1.98 5 -3 5 C-3 5.99 -3 6.98 -3 8 C-3.66 8 -4.32 8 -5 8 C-3.8141763 4.62496331 -2.72426311 2.35277269 0 0 Z " fill="#ABDE4C" transform="translate(763,119)"/>
<path d="M0 0 C0.33 0.66 0.66 1.32 1 2 C-0.65909182 6.10406925 -2.21704034 8.65195608 -6 11 C-4.54955729 6.89041233 -2.48889248 3.56741255 0 0 Z " fill="#E0F6B3" transform="translate(303,95)"/>
<path d="M0 0 C0.66 0.33 1.32 0.66 2 1 C1.01 2.485 1.01 2.485 0 4 C-3.625 4.6875 -3.625 4.6875 -7 5 C-4.63707344 2.47411298 -3.33537489 1.11179163 0 0 Z " fill="#DEF5B3" transform="translate(548,95)"/>
<path d="M0 0 C0 3.51716303 -0.82445585 4.37121748 -3 7 C-4.32 6.67 -5.64 6.34 -7 6 C-4.69 4.02 -2.38 2.04 0 0 Z " fill="#A8DA45" transform="translate(231,170)"/>
<path d="M0 0 C2.7972908 2.06756277 3.02692273 3.14440371 3.6875 6.6875 C3.790625 7.780625 3.89375 8.87375 4 10 C0.06153846 5.69230769 0.06153846 5.69230769 -0.25 2.1875 C-0.1675 1.465625 -0.085 0.74375 0 0 Z " fill="#A8DC49" transform="translate(689,124)"/>
<path d="M0 0 C0.33 0.66 0.66 1.32 1 2 C0.67 2.66 0.34 3.32 0 4 C-0.66 4 -1.32 4 -2 4 C-2 4.66 -2 5.32 -2 6 C-3.32 6.33 -4.64 6.66 -6 7 C-4.19587357 3.73539027 -3.16605307 2.11070205 0 0 Z " fill="#E4F8BC" transform="translate(433,100)"/>
</svg>
